<mxfile host="app.diagrams.net" modified="2022-10-13T04:49:23.876Z" agent="5.0 (Windows NT 10.0; Win64; x64) AppleWebKit/537.36 (KHTML, like Gecko) Chrome/106.0.0.0 Safari/537.36" etag="gmsyDGYApoTWtRtLEFcL" version="20.4.0" type="github">
  <diagram id="tU5R9xd9DCvq7G_De_VE" name="페이지-1">
    <mxGraphModel dx="1038" dy="521" grid="1" gridSize="10" guides="1" tooltips="1" connect="1" arrows="1" fold="1" page="1" pageScale="1" pageWidth="1169" pageHeight="827" math="0" shadow="0">
      <root>
        <mxCell id="0" />
        <mxCell id="1" parent="0" />
        <mxCell id="QHHW-yKXVBZxXvs7iB2v-13" style="rounded=0;orthogonalLoop=1;jettySize=auto;html=1;entryX=0;entryY=0.5;entryDx=0;entryDy=0;endArrow=none;endFill=0;fontSize=18;fontStyle=1" parent="1" source="QHHW-yKXVBZxXvs7iB2v-1" target="QHHW-yKXVBZxXvs7iB2v-2" edge="1">
          <mxGeometry relative="1" as="geometry" />
        </mxCell>
        <mxCell id="QHHW-yKXVBZxXvs7iB2v-14" style="edgeStyle=none;rounded=0;orthogonalLoop=1;jettySize=auto;html=1;entryX=0;entryY=0.5;entryDx=0;entryDy=0;endArrow=none;endFill=0;fontSize=18;fontStyle=1" parent="1" source="QHHW-yKXVBZxXvs7iB2v-1" target="QHHW-yKXVBZxXvs7iB2v-3" edge="1">
          <mxGeometry relative="1" as="geometry" />
        </mxCell>
        <mxCell id="QHHW-yKXVBZxXvs7iB2v-15" style="edgeStyle=none;rounded=0;orthogonalLoop=1;jettySize=auto;html=1;entryX=0;entryY=0.5;entryDx=0;entryDy=0;endArrow=none;endFill=0;fontSize=18;fontStyle=1" parent="1" source="QHHW-yKXVBZxXvs7iB2v-1" target="QHHW-yKXVBZxXvs7iB2v-4" edge="1">
          <mxGeometry relative="1" as="geometry" />
        </mxCell>
        <mxCell id="QHHW-yKXVBZxXvs7iB2v-16" style="edgeStyle=none;rounded=0;orthogonalLoop=1;jettySize=auto;html=1;entryX=0;entryY=0.5;entryDx=0;entryDy=0;endArrow=none;endFill=0;fontSize=18;fontStyle=1" parent="1" source="QHHW-yKXVBZxXvs7iB2v-1" target="QHHW-yKXVBZxXvs7iB2v-5" edge="1">
          <mxGeometry relative="1" as="geometry" />
        </mxCell>
        <mxCell id="QHHW-yKXVBZxXvs7iB2v-17" style="edgeStyle=none;rounded=0;orthogonalLoop=1;jettySize=auto;html=1;entryX=0;entryY=0.5;entryDx=0;entryDy=0;endArrow=none;endFill=0;fontSize=18;fontStyle=1" parent="1" source="QHHW-yKXVBZxXvs7iB2v-1" target="QHHW-yKXVBZxXvs7iB2v-6" edge="1">
          <mxGeometry relative="1" as="geometry" />
        </mxCell>
        <mxCell id="QHHW-yKXVBZxXvs7iB2v-18" style="edgeStyle=none;rounded=0;orthogonalLoop=1;jettySize=auto;html=1;entryX=0;entryY=0.5;entryDx=0;entryDy=0;endArrow=none;endFill=0;fontSize=18;fontStyle=1" parent="1" source="QHHW-yKXVBZxXvs7iB2v-1" target="QHHW-yKXVBZxXvs7iB2v-7" edge="1">
          <mxGeometry relative="1" as="geometry" />
        </mxCell>
        <mxCell id="QHHW-yKXVBZxXvs7iB2v-1" value="사용자" style="shape=umlActor;verticalLabelPosition=bottom;verticalAlign=top;html=1;outlineConnect=0;fontSize=18;fontStyle=1;labelBackgroundColor=#CCCCFF;" parent="1" vertex="1">
          <mxGeometry x="70" y="270" width="70" height="110" as="geometry" />
        </mxCell>
        <mxCell id="QHHW-yKXVBZxXvs7iB2v-19" style="edgeStyle=none;rounded=0;orthogonalLoop=1;jettySize=auto;html=1;entryX=0;entryY=0.5;entryDx=0;entryDy=0;endArrow=none;endFill=0;fontSize=18;fontStyle=1" parent="1" source="QHHW-yKXVBZxXvs7iB2v-2" target="QHHW-yKXVBZxXvs7iB2v-9" edge="1">
          <mxGeometry relative="1" as="geometry" />
        </mxCell>
        <mxCell id="QHHW-yKXVBZxXvs7iB2v-2" value="1.로그인" style="ellipse;whiteSpace=wrap;html=1;fontSize=18;fontStyle=1" parent="1" vertex="1">
          <mxGeometry x="400" y="30" width="120" height="80" as="geometry" />
        </mxCell>
        <mxCell id="QHHW-yKXVBZxXvs7iB2v-20" style="edgeStyle=none;rounded=0;orthogonalLoop=1;jettySize=auto;html=1;entryX=0;entryY=0.5;entryDx=0;entryDy=0;endArrow=none;endFill=0;fontSize=18;fontStyle=1" parent="1" source="QHHW-yKXVBZxXvs7iB2v-3" target="QHHW-yKXVBZxXvs7iB2v-9" edge="1">
          <mxGeometry relative="1" as="geometry" />
        </mxCell>
        <mxCell id="QHHW-yKXVBZxXvs7iB2v-3" value="2.로그아웃" style="ellipse;whiteSpace=wrap;html=1;fontSize=18;fontStyle=1" parent="1" vertex="1">
          <mxGeometry x="400" y="120" width="120" height="80" as="geometry" />
        </mxCell>
        <mxCell id="QHHW-yKXVBZxXvs7iB2v-21" style="edgeStyle=none;rounded=0;orthogonalLoop=1;jettySize=auto;html=1;entryX=0;entryY=0.5;entryDx=0;entryDy=0;endArrow=none;endFill=0;exitX=1;exitY=0.5;exitDx=0;exitDy=0;fontSize=18;fontStyle=1" parent="1" source="QHHW-yKXVBZxXvs7iB2v-4" target="QHHW-yKXVBZxXvs7iB2v-11" edge="1">
          <mxGeometry relative="1" as="geometry" />
        </mxCell>
        <mxCell id="QHHW-yKXVBZxXvs7iB2v-4" value="3.글 등록" style="ellipse;whiteSpace=wrap;html=1;fontSize=18;fontStyle=1" parent="1" vertex="1">
          <mxGeometry x="400" y="220" width="120" height="80" as="geometry" />
        </mxCell>
        <mxCell id="QHHW-yKXVBZxXvs7iB2v-22" style="edgeStyle=none;rounded=0;orthogonalLoop=1;jettySize=auto;html=1;entryX=0;entryY=0.5;entryDx=0;entryDy=0;endArrow=none;endFill=0;fontSize=18;fontStyle=1" parent="1" source="QHHW-yKXVBZxXvs7iB2v-5" target="QHHW-yKXVBZxXvs7iB2v-11" edge="1">
          <mxGeometry relative="1" as="geometry" />
        </mxCell>
        <mxCell id="QHHW-yKXVBZxXvs7iB2v-5" value="4.글 삭제" style="ellipse;whiteSpace=wrap;html=1;fontSize=18;fontStyle=1" parent="1" vertex="1">
          <mxGeometry x="400" y="320" width="120" height="80" as="geometry" />
        </mxCell>
        <mxCell id="QHHW-yKXVBZxXvs7iB2v-23" style="edgeStyle=none;rounded=0;orthogonalLoop=1;jettySize=auto;html=1;entryX=0;entryY=0.5;entryDx=0;entryDy=0;endArrow=none;endFill=0;fontSize=18;fontStyle=1" parent="1" source="QHHW-yKXVBZxXvs7iB2v-6" target="QHHW-yKXVBZxXvs7iB2v-11" edge="1">
          <mxGeometry relative="1" as="geometry" />
        </mxCell>
        <mxCell id="QHHW-yKXVBZxXvs7iB2v-6" value="5.글 수정" style="ellipse;whiteSpace=wrap;html=1;fontSize=18;fontStyle=1" parent="1" vertex="1">
          <mxGeometry x="400" y="420" width="120" height="80" as="geometry" />
        </mxCell>
        <mxCell id="QHHW-yKXVBZxXvs7iB2v-24" style="edgeStyle=none;rounded=0;orthogonalLoop=1;jettySize=auto;html=1;endArrow=none;endFill=0;fontSize=18;fontStyle=1;entryX=0;entryY=0.5;entryDx=0;entryDy=0;exitX=1;exitY=0.5;exitDx=0;exitDy=0;" parent="1" source="QHHW-yKXVBZxXvs7iB2v-7" target="QHHW-yKXVBZxXvs7iB2v-11" edge="1">
          <mxGeometry relative="1" as="geometry">
            <mxPoint x="800" y="460" as="targetPoint" />
          </mxGeometry>
        </mxCell>
        <mxCell id="QHHW-yKXVBZxXvs7iB2v-25" style="edgeStyle=none;rounded=0;orthogonalLoop=1;jettySize=auto;html=1;endArrow=none;endFill=0;startArrow=classic;startFill=1;fontSize=18;fontStyle=1" parent="1" source="QHHW-yKXVBZxXvs7iB2v-7" target="QHHW-yKXVBZxXvs7iB2v-8" edge="1">
          <mxGeometry relative="1" as="geometry" />
        </mxCell>
        <mxCell id="QHHW-yKXVBZxXvs7iB2v-7" value="6.글 조회" style="ellipse;whiteSpace=wrap;html=1;fontSize=18;fontStyle=1" parent="1" vertex="1">
          <mxGeometry x="400" y="510" width="120" height="80" as="geometry" />
        </mxCell>
        <mxCell id="QHHW-yKXVBZxXvs7iB2v-8" value="8.댓글 삭제" style="ellipse;whiteSpace=wrap;html=1;fontSize=18;fontStyle=1" parent="1" vertex="1">
          <mxGeometry x="670" y="590" width="120" height="80" as="geometry" />
        </mxCell>
        <mxCell id="QHHW-yKXVBZxXvs7iB2v-9" value="로그인 시스템" style="rounded=0;whiteSpace=wrap;html=1;fontSize=18;fontStyle=1;labelBackgroundColor=#FFFF66;" parent="1" vertex="1">
          <mxGeometry x="800" y="250" width="120" height="60" as="geometry" />
        </mxCell>
        <mxCell id="QHHW-yKXVBZxXvs7iB2v-11" value="DB 시스템" style="rounded=0;whiteSpace=wrap;html=1;fontSize=18;fontStyle=1;labelBackgroundColor=#FFFF66;" parent="1" vertex="1">
          <mxGeometry x="800" y="360" width="120" height="60" as="geometry" />
        </mxCell>
        <mxCell id="QHHW-yKXVBZxXvs7iB2v-26" value="&amp;lt;&amp;lt;Extend&amp;gt;&amp;gt;" style="text;html=1;strokeColor=none;fillColor=none;align=center;verticalAlign=middle;whiteSpace=wrap;rounded=0;fontSize=13;fontStyle=1" parent="1" vertex="1">
          <mxGeometry x="620" y="690" width="40" height="10" as="geometry" />
        </mxCell>
        <mxCell id="ZnPQfKyPM1ZErcbYO8cb-5" style="edgeStyle=none;rounded=0;orthogonalLoop=1;jettySize=auto;html=1;entryX=0.917;entryY=0.875;entryDx=0;entryDy=0;entryPerimeter=0;" parent="1" source="ZnPQfKyPM1ZErcbYO8cb-1" target="QHHW-yKXVBZxXvs7iB2v-7" edge="1">
          <mxGeometry relative="1" as="geometry" />
        </mxCell>
        <mxCell id="ZnPQfKyPM1ZErcbYO8cb-1" value="9.댓글 수정" style="ellipse;whiteSpace=wrap;html=1;fontSize=18;fontStyle=1" parent="1" vertex="1">
          <mxGeometry x="670" y="690" width="120" height="80" as="geometry" />
        </mxCell>
        <mxCell id="ZnPQfKyPM1ZErcbYO8cb-3" style="rounded=0;orthogonalLoop=1;jettySize=auto;html=1;entryX=0.993;entryY=0.632;entryDx=0;entryDy=0;entryPerimeter=0;" parent="1" source="ZnPQfKyPM1ZErcbYO8cb-2" target="QHHW-yKXVBZxXvs7iB2v-7" edge="1">
          <mxGeometry relative="1" as="geometry" />
        </mxCell>
        <mxCell id="ZnPQfKyPM1ZErcbYO8cb-2" value="7.댓글 작성" style="ellipse;whiteSpace=wrap;html=1;fontSize=18;fontStyle=1" parent="1" vertex="1">
          <mxGeometry x="670" y="490" width="120" height="80" as="geometry" />
        </mxCell>
        <mxCell id="ZnPQfKyPM1ZErcbYO8cb-6" value="&amp;lt;&amp;lt;Extend&amp;gt;&amp;gt;" style="text;html=1;strokeColor=none;fillColor=none;align=center;verticalAlign=middle;whiteSpace=wrap;rounded=0;fontSize=13;fontStyle=1" parent="1" vertex="1">
          <mxGeometry x="610" y="610" width="40" height="10" as="geometry" />
        </mxCell>
        <mxCell id="ZnPQfKyPM1ZErcbYO8cb-7" value="&amp;lt;&amp;lt;Extend&amp;gt;&amp;gt;" style="text;html=1;strokeColor=none;fillColor=none;align=center;verticalAlign=middle;whiteSpace=wrap;rounded=0;fontSize=13;fontStyle=1" parent="1" vertex="1">
          <mxGeometry x="620" y="550" width="40" height="10" as="geometry" />
        </mxCell>
      </root>
    </mxGraphModel>
  </diagram>
</mxfile>
